<?xml version="1.0" encoding="UTF-8" standalone="no"?>
<!-- Created with Inkscape (http://www.inkscape.org/) -->

<svg
   xmlns:dc="http://purl.org/dc/elements/1.1/"
   xmlns:cc="http://creativecommons.org/ns#"
   xmlns:rdf="http://www.w3.org/1999/02/22-rdf-syntax-ns#"
   xmlns:svg="http://www.w3.org/2000/svg"
   xmlns="http://www.w3.org/2000/svg"
   xmlns:sodipodi="http://sodipodi.sourceforge.net/DTD/sodipodi-0.dtd"
   xmlns:inkscape="http://www.inkscape.org/namespaces/inkscape"
   width="566.37781"
   height="523.6947"
   id="svg2"
   version="1.1"
   inkscape:version="0.48.5 r10040"
   sodipodi:docname="desenho.svg">
  <defs
     id="defs4" />
  <sodipodi:namedview
     id="base"
     pagecolor="#ffffff"
     bordercolor="#666666"
     borderopacity="1.0"
     inkscape:pageopacity="0.0"
     inkscape:pageshadow="2"
     inkscape:zoom="0.7"
     inkscape:cx="538.46299"
     inkscape:cy="205.56585"
     inkscape:document-units="px"
     inkscape:current-layer="layer1"
     showgrid="false"
     fit-margin-top="0"
     fit-margin-left="0"
     fit-margin-right="0"
     fit-margin-bottom="0"
     inkscape:window-width="1920"
     inkscape:window-height="1021"
     inkscape:window-x="0"
     inkscape:window-y="27"
     inkscape:window-maximized="1" />
  <metadata
     id="metadata7">
    <rdf:RDF>
      <cc:Work
         rdf:about="">
        <dc:format>image/svg+xml</dc:format>
        <dc:type
           rdf:resource="http://purl.org/dc/dcmitype/StillImage" />
        <dc:title></dc:title>
      </cc:Work>
    </rdf:RDF>
  </metadata>
  <g
     inkscape:label="Camada 1"
     inkscape:groupmode="layer"
     id="layer1"
     transform="translate(-18.624985,109.99797)">
    <g
       id="g2996"
       transform="matrix(1.0552067,0,0,1.0552067,72.572018,116.36165)" />
    <g
       id="g2998"
       transform="matrix(1.0552067,0,0,1.0552067,72.572018,116.36165)" />
    <g
       id="g3000"
       transform="matrix(1.0552067,0,0,1.0552067,72.572018,116.36165)" />
    <g
       id="g3002"
       transform="matrix(1.0552067,0,0,1.0552067,72.572018,116.36165)" />
    <g
       id="g3004"
       transform="matrix(1.0552067,0,0,1.0552067,72.572018,116.36165)" />
    <g
       id="g3006"
       transform="matrix(1.0552067,0,0,1.0552067,72.572018,116.36165)" />
    <g
       id="g3008"
       transform="matrix(1.0552067,0,0,1.0552067,72.572018,116.36165)" />
    <g
       id="g3010"
       transform="matrix(1.0552067,0,0,1.0552067,72.572018,116.36165)" />
    <g
       id="g3012"
       transform="matrix(1.0552067,0,0,1.0552067,72.572018,116.36165)" />
    <g
       id="g3014"
       transform="matrix(1.0552067,0,0,1.0552067,72.572018,116.36165)" />
    <g
       id="g3016"
       transform="matrix(1.0552067,0,0,1.0552067,72.572018,116.36165)" />
    <g
       id="g3018"
       transform="matrix(1.0552067,0,0,1.0552067,72.572018,116.36165)" />
    <g
       id="g3020"
       transform="matrix(1.0552067,0,0,1.0552067,72.572018,116.36165)" />
    <g
       id="g3022"
       transform="matrix(1.0552067,0,0,1.0552067,72.572018,116.36165)" />
    <g
       id="g3024"
       transform="matrix(1.0552067,0,0,1.0552067,72.572018,116.36165)" />
    <g
       id="g3115"
       transform="matrix(6.7148657,0,0,6.7148657,1485.0442,279.80905)">
      <path
         style="fill:#006df0"
         d="m 30.363222,5.8182362 c -0.387997,0.00619 -0.999845,0.1661715 -1.839715,0.4772595 -0.959852,0.3555284 -2.037019,0.9385219 -3.2315,1.7490629 -1.69207,-0.469261 -3.448386,-0.703891 -5.268519,-0.703891 -1.834384,0 -3.583445,0.23463 -5.247188,0.703891 C 14.022668,7.5326386 13.308109,7.1096206 12.632631,6.7754213 11.957152,6.4412223 11.41682,6.2137588 11.011549,6.0928601 10.606278,5.97196 10.22942,5.8973069 9.8810578,5.8688951 9.5326956,5.840486 9.3087292,5.8333184 9.2091613,5.8475711 9.1095852,5.8618238 9.0385214,5.8759801 8.995861,5.8902328 8.1995674,7.9095036 8.1284113,9.7652166 8.7825607,11.457371 c -1.4361945,1.550011 -2.1543346,3.427053 -2.1543346,5.631128 0,1.137574 0.099569,2.179247 0.2986207,3.12485 0.1990519,0.945603 0.4692606,1.756145 0.8105419,2.431624 0.3412813,0.675479 0.7642981,1.279802 1.2691371,1.813052 0.5048389,0.533251 1.0309232,0.966934 1.5784232,1.301133 0.547499,0.334199 1.16607,0.622155 1.855712,0.863867 0.689642,0.241711 1.343792,0.426599 1.962363,0.554579 0.61857,0.127985 1.297548,0.227549 2.037019,0.298621 -1.166071,0.796294 -1.749063,2.061932 -1.749063,3.796746 l 0,3.335484 c -0.12284,-0.03657 -0.245784,-0.07553 -0.367944,-0.114654 -0.01431,0.784446 -0.02332,2.389639 0.101309,3.674098 1.757575,0.456017 3.602927,0.69856 5.503149,0.69856 1.997081,0 3.929238,-0.271174 5.767108,-0.773215 l -0.09864,-3.618107 c -0.07302,0.02372 -0.145342,0.04921 -0.218632,0.07199 l 0,-3.27416 c 0,-1.72065 -0.590075,-2.986204 -1.770394,-3.796745 0.739557,-0.07107 1.418448,-0.170642 2.037019,-0.298621 0.618571,-0.127985 1.272805,-0.31287 1.962363,-0.55458 0.689729,-0.241713 1.3083,-0.529669 1.855712,-0.863868 0.547585,-0.334199 1.07367,-0.767882 1.578424,-1.301131 0.504924,-0.533252 0.927857,-1.137574 1.269137,-1.813053 0.34128,-0.675478 0.611574,-1.486021 0.810541,-2.431623 0.199137,-0.945605 0.29862,-1.987278 0.29862,-3.124852 0,-2.204073 -0.718055,-4.081117 -2.154333,-5.631128 0.654234,-1.7064014 0.583077,-3.5621144 -0.213301,-5.567138 l -0.53325,-0.063999 c -0.0462,-0.00523 -0.09922,-0.0088 -0.154643,-0.00798 z"
         id="path3221"
         inkscape:connector-curvature="0"
         sodipodi:nodetypes="sscscssssccssssssscscccscccscscccscscccs" />
      <g
         id="g3223"
         transform="matrix(0.14892331,0,0,0.14892331,-97.850031,-66.735746)" />
      <g
         id="g3225"
         transform="matrix(0.14892331,0,0,0.14892331,-97.850031,-66.735746)" />
      <g
         id="g3227"
         transform="matrix(0.14892331,0,0,0.14892331,-97.850031,-66.735746)" />
      <g
         id="g3229"
         transform="matrix(0.14892331,0,0,0.14892331,-97.850031,-66.735746)" />
      <g
         id="g3231"
         transform="matrix(0.14892331,0,0,0.14892331,-97.850031,-66.735746)" />
      <g
         id="g3233"
         transform="matrix(0.14892331,0,0,0.14892331,-97.850031,-66.735746)" />
      <g
         id="g3235"
         transform="matrix(0.14892331,0,0,0.14892331,-97.850031,-66.735746)" />
      <g
         id="g3237"
         transform="matrix(0.14892331,0,0,0.14892331,-97.850031,-66.735746)" />
      <g
         id="g3239"
         transform="matrix(0.14892331,0,0,0.14892331,-97.850031,-66.735746)" />
      <g
         id="g3241"
         transform="matrix(0.14892331,0,0,0.14892331,-97.850031,-66.735746)" />
      <g
         id="g3243"
         transform="matrix(0.14892331,0,0,0.14892331,-97.850031,-66.735746)" />
      <g
         id="g3245"
         transform="matrix(0.14892331,0,0,0.14892331,-97.850031,-66.735746)" />
      <g
         id="g3247"
         transform="matrix(0.14892331,0,0,0.14892331,-97.850031,-66.735746)" />
      <g
         id="g3249"
         transform="matrix(0.14892331,0,0,0.14892331,-97.850031,-66.735746)" />
      <g
         id="g3251"
         transform="matrix(0.14892331,0,0,0.14892331,-97.850031,-66.735746)" />
    </g>
    <g
       id="g3119"
       transform="matrix(6.7148657,0,0,6.7148657,175.66566,215.1767)" />
    <g
       id="g3121"
       transform="matrix(6.7148657,0,0,6.7148657,175.66566,215.1767)" />
    <g
       id="g3123"
       transform="matrix(6.7148657,0,0,6.7148657,175.66566,215.1767)" />
    <g
       id="g3125"
       transform="matrix(6.7148657,0,0,6.7148657,175.66566,215.1767)" />
    <g
       id="g3127"
       transform="matrix(6.7148657,0,0,6.7148657,175.66566,215.1767)" />
    <g
       id="g3129"
       transform="matrix(6.7148657,0,0,6.7148657,175.66566,215.1767)" />
    <g
       id="g3131"
       transform="matrix(6.7148657,0,0,6.7148657,175.66566,215.1767)" />
    <g
       id="g3133"
       transform="matrix(6.7148657,0,0,6.7148657,175.66566,215.1767)" />
    <g
       id="g3135"
       transform="matrix(6.7148657,0,0,6.7148657,175.66566,215.1767)" />
    <g
       id="g3137"
       transform="matrix(6.7148657,0,0,6.7148657,175.66566,215.1767)" />
    <g
       id="g3139"
       transform="matrix(6.7148657,0,0,6.7148657,175.66566,215.1767)" />
    <g
       id="g3141"
       transform="matrix(6.7148657,0,0,6.7148657,175.66566,215.1767)" />
    <g
       id="g3143"
       transform="matrix(6.7148657,0,0,6.7148657,175.66566,215.1767)" />
    <g
       id="g3145"
       transform="matrix(6.7148657,0,0,6.7148657,175.66566,215.1767)" />
    <g
       id="g3147"
       transform="matrix(6.7148657,0,0,6.7148657,175.66566,215.1767)" />
    <g
       id="g3305"
       transform="matrix(9.9982908,0,0,9.9982908,-6.2078626,73.999367)" />
    <g
       id="g3307"
       transform="matrix(9.9982908,0,0,9.9982908,-6.2078626,73.999367)" />
    <g
       id="g3309"
       transform="matrix(9.9982908,0,0,9.9982908,-6.2078626,73.999367)" />
    <g
       id="g3311"
       transform="matrix(9.9982908,0,0,9.9982908,-6.2078626,73.999367)" />
    <g
       id="g3313"
       transform="matrix(9.9982908,0,0,9.9982908,-6.2078626,73.999367)" />
    <g
       id="g3315"
       transform="matrix(9.9982908,0,0,9.9982908,-6.2078626,73.999367)" />
    <g
       id="g3317"
       transform="matrix(9.9982908,0,0,9.9982908,-6.2078626,73.999367)" />
    <g
       id="g3319"
       transform="matrix(9.9982908,0,0,9.9982908,-6.2078626,73.999367)" />
    <g
       id="g3321"
       transform="matrix(9.9982908,0,0,9.9982908,-6.2078626,73.999367)" />
    <g
       id="g3323"
       transform="matrix(9.9982908,0,0,9.9982908,-6.2078626,73.999367)" />
    <g
       id="g3325"
       transform="matrix(9.9982908,0,0,9.9982908,-6.2078626,73.999367)" />
    <g
       id="g3327"
       transform="matrix(9.9982908,0,0,9.9982908,-6.2078626,73.999367)" />
    <g
       id="g3329"
       transform="matrix(9.9982908,0,0,9.9982908,-6.2078626,73.999367)" />
    <g
       id="g3331"
       transform="matrix(9.9982908,0,0,9.9982908,-6.2078626,73.999367)" />
    <g
       id="g3333"
       transform="matrix(9.9982908,0,0,9.9982908,-6.2078626,73.999367)" />
    <g
       id="g4281">
      <path
         sodipodi:nodetypes="ccccccc"
         id="path2990"
         d="M 570.69301,352.22416 424.94716,206.47123 c -16.75129,20.75448 -28.20576,31.48304 -47.17404,47.16414 l 145.75414,145.75411 c 18.75242,18.74959 38.86328,17.73082 51.86179,4.6964 13.03812,-13.0022 14.05683,-33.11301 -4.69556,-51.86168 z"
         inkscape:connector-curvature="0"
         style="fill:#ffffff;stroke:none" />
      <path
         sodipodi:nodetypes="cssssscscscsssccssscccc"
         inkscape:connector-curvature="0"
         id="path4279"
         d="m 258.77232,-104.53125 c 5.99376,-0.69362 2.56454,25.756026 6.91058,25.629757 3.44722,-0.100154 -1.52501,6.10893 -2.99201,6.201566 -4.60173,0.290581 7.31872,0.665231 11.80554,1.349546 C 350.22543,-59.800414 408.4375,5.7495891 408.4375,84.65625 408.4375,171.68669 337.62194,242.5 250.59375,242.5 191.9079,242.5 140.6926,210.2441 113.5,162.59375 c -3.34383,0.43291 -6.57383,0.81516 -9.625,1 -3.57672,0.21667 -7.035309,0.23014 -10.46875,0.0312 -3.433441,-0.19884 -6.867932,-0.6176 -10.4375,-1.3125 -2.85517,-0.55583 -5.896866,-1.42417 -9,-2.34375 29.28649,68.59989 97.32671,116.6875 176.625,116.6875 106.03139,0 192,-85.97073 192,-192 0,-106.029283 -85.96861,-192 -192,-192 -26.99953,0 -52.65884,5.62668 -75.96875,15.6875 5.8e-4,1.58e-4 0.125,0.03125 0.125,0.03125 0,0 1.63785,-9.52e-4 3.46875,0.09375 1.8309,0.0947 3.86739,0.277443 4.625,0.65625 0.75761,0.378807 5.29997,1.335184 9.65625,2.1875 4.35628,0.852316 8.53125,1.59375 8.53125,1.59375 l 8.0625,0 5.8125,-0.25 z"
         style="fill:#ffffff;stroke:none" />
      <path
         id="path4277"
         d="m 58.65625,81.625 c -0.01576,1.013223 -0.0625,2.014278 -0.0625,3.03125 0,5.022909 0.433638,11.011649 0.8125,15.9375 1.134682,1.20564 0.688683,3.25154 2.65625,5.0625 3.123186,2.87459 7.593551,9.6463 11.5,12.96875 3.906449,3.32245 6.986664,5.08281 10.0625,7.53125 3.075836,2.44844 8.149905,1.46621 8.78125,1.71875 0.631345,0.25254 1.357907,1.74905 2.28125,1.84375 0.923343,0.0947 1.678299,-1.09375 2.59375,-1.09375 1.403079,0 1.007537,-0.68415 1.5,-0.71875 -2.758599,-9.86121 -4.6592,-20.52326 -5.5,-31.28125 C 93.097239,96.510156 92.863889,96.326543 92.6875,96.21875 90.982867,95.17703 89.661326,94.5 89.15625,94.5 c -0.505076,0 -1.626824,-0.35414 -3,-0.875 C 84.783074,93.10414 83.140863,92.41323 81.5625,91.71875 78.405773,90.32979 75.5,88.9375 75.5,88.9375 l -9.84375,-4.5625 -7,-2.75 z"
         style="fill:#ffffff;stroke:none"
         inkscape:connector-curvature="0" />
      <path
         sodipodi:nodetypes="ccccc"
         id="path2994"
         d="m 377.72167,31.247383 -11.28076,7.783707 c 23.12683,41.058223 2.84508,109.72745 -35.35508,131.78232 l 3.14243,17.71207 C 387.70319,157.65171 408.59593,84.723236 377.72167,31.247383 z"
         inkscape:connector-curvature="0"
         style="fill:#ffffff;stroke:none" />
      <g
         style="fill:none;stroke:#ffffff"
         transform="matrix(9.9982908,0,0,9.9982908,-315.06797,-356.83077)"
         id="g3301">
        <path
           id="path3303-9"
           d="m 59.581746,41.168562 0,0.188 c -1.396999,2.76 -4.214,4.116001 -8.099,4.401 0.418001,0.908001 1.218,1.254001 1.414001,2.717001 0.288999,2.184999 -0.457,5.382999 0.278999,6.837999 0.354,0.697001 1.73826,1.119131 1.368517,1.564582 -0.951001,1.124999 -3.361516,-0.379582 -3.628517,-1.564582 -0.461,-2.029999 0.700001,-5.18 -0.563999,-6.559 0.09,2.217 -0.522,5.326001 0.095,7.307 0.243001,0.777 1.602712,1.534646 0.754,1.781001 -4.170419,0.853129 -2.574,-5.725001 -3.297,-9.367 -0.668,0.047 -0.375,1 -0.377,1.404 -0.02,3.558999 0.729001,8.437999 -3.107,7.963 -0.111,-0.746001 0.517,-1.004001 0.754001,-1.686 0.698999,-2.002001 -0.131001,-4.986001 0.189999,-7.402001 -1.464,1.104 0.153,4.957001 -0.755,6.934001 -0.521,1.136 -0.134833,1.782548 -1.410833,1.274549 0.166,-0.848 -1.030167,-0.86055 -0.659167,-1.64955 0.518,-1.102 0.002,-2.686 0.188,-4.310999 -2.71,0.540999 -4.812,-0.076 -5.84,-1.779 -0.459,-0.764001 -0.574,-1.664001 -1.129,-2.34 -0.556,-0.680001 -1.438,-0.770001 -1.694,-1.688001 3.354,-0.809 3.483,3.453 6.497,3.559 0.925,0.033 1.404,-0.267999 2.26,-0.466999 0.238,-1.074001 0.752,-1.877 1.507,-2.438001 -3.75,-0.515 -6.847,-1.683 -8.286,-4.494999 0,0 -0.590342,-1.027089 -0.565,-1.03 -0.986,-3.093001 -0.646,-8.006 1.506,-9.836 -0.609,-1.535 -0.42,-4.05 0.377,-5.246 2.4,0.108 3.857,1.155 5.367,2.155 1.871,-0.532 3.839001,-0.797 6.402001,-0.655 1.077999,0.062 2.200999,0.543 3.013,0.467 0.796999,-0.072 1.675999,-0.969 2.447999,-1.31 1.009001,-0.446 1.86,-0.614 3.015,-0.657 0.554,1.258 0.912,3.344 0.377,4.871 2.188001,1.868 2.938,6.407 1.883001,10.118 -0.02509,0.375851 -0.339565,1.041462 -0.283002,0.937999 z"
           inkscape:connector-curvature="0"
           style="fill:none;stroke:#ffffff;stroke-width:1.09998798;stroke-miterlimit:4;stroke-dasharray:none"
           sodipodi:nodetypes="ccccccccccccccccccccccccccccccccccccc" />
      </g>
      <path
         sodipodi:nodetypes="csccsccsc"
         inkscape:connector-curvature="0"
         id="path3461"
         d="m 238.11225,276.33247 c 3.11869,-6.38067 31.31893,0.0391 41.09547,-16.25673 3.1115,-5.18637 5.50876,-9.3597 8.36928,-14.20247 -72.77112,4.29996 -144.04105,-27.98986 -174.70806,-84.00518 0,0 -0.92023,-3.66088 -2.87135,-3.23465 -12.207591,2.66686 -13.70487,1.75138 -24.654114,1.1647 l -12.827708,-2.74526 c 0.20843,0.5139 0.39344,1.02837 0.60663,1.54148 28.981762,69.75375 94.387062,113.13139 164.989852,117.73811 z"
         style="fill:#ffffff" />
    </g>
  </g>
</svg>
